<svg width="721" height="267" viewBox="0 0 721 267" fill="none" xmlns="http://www.w3.org/2000/svg">
<path d="M262.015 79.2295C276.133 79.2295 288.154 84.611 298.078 95.3741C308.143 106.137 313.175 119.207 313.175 134.582C313.175 150.238 308.143 163.377 298.078 174C288.294 184.624 276.273 189.935 262.015 189.935C247.338 189.935 236.016 184.833 228.049 174.629V187H201.001V40.2308H228.049V94.5354C236.016 84.3315 247.338 79.2295 262.015 79.2295ZM236.226 155.969C241.677 161.42 248.596 164.146 256.983 164.146C265.37 164.146 272.289 161.42 277.74 155.969C283.332 150.378 286.127 143.249 286.127 134.582C286.127 125.916 283.332 118.857 277.74 113.406C272.289 107.815 265.37 105.019 256.983 105.019C248.596 105.019 241.677 107.815 236.226 113.406C230.774 118.857 228.049 125.916 228.049 134.582C228.049 143.249 230.774 150.378 236.226 155.969ZM345.669 69.5846C341.196 69.5846 337.282 67.9772 333.927 64.7622C330.712 61.4075 329.105 57.4937 329.105 53.0207C329.105 48.5477 330.712 44.6339 333.927 41.2791C337.282 37.9244 341.196 36.2471 345.669 36.2471C350.281 36.2471 354.195 37.9244 357.41 41.2791C360.765 44.6339 362.442 48.5477 362.442 53.0207C362.442 57.4937 360.765 61.4075 357.41 64.7622C354.195 67.9772 350.281 69.5846 345.669 69.5846ZM359.297 187H332.25V82.1649H359.297V187ZM461.421 100.196L416.971 161.63H463.518V187H380.698V168.968L424.939 107.535H382.795V82.1649H461.421V100.196ZM510.407 187H483.36V33.9407H510.407V187ZM637.063 145.695H558.017C561.512 158.834 571.366 165.404 587.581 165.404C597.924 165.404 605.752 161.909 611.064 154.92L632.869 167.501C622.526 182.457 607.29 189.935 587.161 189.935C569.829 189.935 555.92 184.694 545.437 174.21C534.953 163.727 529.712 150.517 529.712 134.582C529.712 118.927 534.883 105.788 545.227 95.1644C555.431 84.5411 568.71 79.2295 585.065 79.2295C600.58 79.2295 613.23 84.5411 623.015 95.1644C633.079 105.788 638.111 118.927 638.111 134.582C638.111 137.518 637.762 141.222 637.063 145.695ZM557.598 124.728H611.064C609.526 117.879 606.381 112.637 601.629 109.003C597.016 105.368 591.494 103.551 585.065 103.551C577.796 103.551 571.785 105.438 567.033 109.212C562.28 112.847 559.135 118.018 557.598 124.728ZM684.04 82.1649V100.196C686.417 93.6268 690.47 88.6646 696.201 85.3099C701.932 81.8154 708.502 80.0682 715.91 80.0682V110.261C707.663 109.142 700.255 110.82 693.685 115.293C687.255 119.626 684.04 126.825 684.04 136.889V187H656.993V82.1649H684.04Z" fill="black"/>
<path d="M573.255 217.056V211.452H578.859V242.664C578.859 247.485 577.23 251.221 573.972 253.871C570.671 256.565 566.761 257.911 562.243 257.911C558.594 257.911 555.445 257.216 552.795 255.826C550.145 254.479 548.147 252.525 546.8 249.962L551.752 247.16C553.533 250.809 557.074 252.633 562.373 252.633C565.762 252.633 568.412 251.743 570.323 249.962C572.278 248.181 573.255 245.748 573.255 242.664V238.037C570.388 242.381 566.305 244.553 561.005 244.553C556.314 244.553 552.382 242.903 549.211 239.601C545.996 236.256 544.389 232.238 544.389 227.546C544.389 222.855 545.996 218.858 549.211 215.557C552.382 212.255 556.314 210.605 561.005 210.605C566.348 210.605 570.432 212.755 573.255 217.056ZM573.255 227.546C573.255 224.288 572.148 221.552 569.932 219.336C567.717 217.121 564.958 216.013 561.657 216.013C558.355 216.013 555.597 217.121 553.381 219.336C551.166 221.552 550.058 224.288 550.058 227.546C550.058 230.848 551.166 233.606 553.381 235.822C555.597 238.037 558.355 239.145 561.657 239.145C564.958 239.145 567.717 238.037 569.932 235.822C572.148 233.606 573.255 230.848 573.255 227.546ZM593.117 211.452V216.925C594.985 212.885 598.373 210.865 603.282 210.865V216.795C600.502 216.665 598.113 217.403 596.114 219.01C594.116 220.618 593.117 223.202 593.117 226.764V244.032H587.448V211.452H593.117ZM634.545 239.927C631.243 243.228 627.182 244.879 622.36 244.879C617.538 244.879 613.476 243.228 610.175 239.927C606.873 236.625 605.223 232.564 605.223 227.742C605.223 222.92 606.873 218.858 610.175 215.557C613.476 212.255 617.538 210.605 622.36 210.605C627.182 210.605 631.243 212.255 634.545 215.557C637.89 218.902 639.562 222.963 639.562 227.742C639.562 232.52 637.89 236.582 634.545 239.927ZM622.36 239.34C625.618 239.34 628.355 238.233 630.57 236.017C632.786 233.802 633.893 231.043 633.893 227.742C633.893 224.44 632.786 221.682 630.57 219.466C628.355 217.251 625.618 216.143 622.36 216.143C619.145 216.143 616.43 217.251 614.215 219.466C611.999 221.682 610.892 224.44 610.892 227.742C610.892 231.043 611.999 233.802 614.215 236.017C616.43 238.233 619.145 239.34 622.36 239.34ZM668.726 228.719V211.452H674.395V244.032H668.726V239.34C666.467 243.033 662.948 244.879 658.17 244.879C654.347 244.879 651.284 243.684 648.982 241.295C646.68 238.863 645.528 235.583 645.528 231.456V211.452H651.197V231.13C651.197 233.737 651.914 235.778 653.348 237.255C654.781 238.732 656.758 239.471 659.277 239.471C662.188 239.471 664.49 238.58 666.184 236.799C667.879 234.975 668.726 232.281 668.726 228.719ZM701.01 210.605C705.571 210.605 709.459 212.277 712.673 215.622C715.888 218.967 717.495 223.007 717.495 227.742C717.495 232.52 715.888 236.582 712.673 239.927C709.502 243.228 705.614 244.879 701.01 244.879C695.623 244.879 691.518 242.729 688.694 238.428V257.064H683.025V211.452H688.694V217.056C691.518 212.755 695.623 210.605 701.01 210.605ZM700.293 239.406C703.551 239.406 706.288 238.298 708.503 236.082C710.719 233.78 711.826 231 711.826 227.742C711.826 224.44 710.719 221.682 708.503 219.466C706.288 217.208 703.551 216.078 700.293 216.078C696.991 216.078 694.233 217.208 692.017 219.466C689.802 221.682 688.694 224.44 688.694 227.742C688.694 231 689.802 233.78 692.017 236.082C694.233 238.298 696.991 239.406 700.293 239.406Z" fill="black"/>
<path d="M149.791 40.5316L0 190.322H149.791V40.5316Z" fill="#52B6C4"/>
</svg>
