<svg width="1596" height="408" viewBox="0 0 1596 408" fill="none" xmlns="http://www.w3.org/2000/svg">
<path d="M148.8 118.3C154.5 119.2 159.9 121.9 163.9 126L259.6 56.6003L203.9 0.900391L148.9 56.0004L148.8 118.3Z" fill="#ffffff"/>
<path d="M168.8 132.7C170.1 135.2 170.9 137.8 171.4 140.6H347.5V60.5H268.6L168.8 132.7Z" fill="#ffffff"/>
<path d="M351.8 148.7H171.5C170.9 153.1 169.2 157.2 166.6 160.8L347.5 341.7V263.4L407 203.9L351.8 148.7Z" fill="#ffffff"/>
<path d="M118.2 140.501C118.9 136.301 120.6 132.401 123.1 128.901L60.2998 66.1006V140.501H118.2Z" fill="#ffffff"/>
<path d="M140.6 118.301L140.7 60.3008H66.0996L128.9 123.101C132.4 120.701 136.4 119.001 140.6 118.301Z" fill="#ffffff"/>
<path d="M160.8 166.7C157.2 169.3 153.1 171.1 148.7 171.7L148.5 351.7L203.9 407.1L263.4 347.6H341.7L160.8 166.7Z" fill="#ffffff"/>
<path d="M140.6 171.6C137.8 171.2 135.1 170.3 132.6 169L60.3999 269.4V347.5H140.4L140.6 171.6Z" fill="#ffffff"/>
<path d="M125.9 164.2C121.7 160.1 118.9 154.6 118.1 148.7H55.9998L0.799805 203.9L56.8998 260L125.9 164.2Z" fill="#ffffff"/>
<path d="M499.6 136.1L499.5 106.8L485.1 130.9H480L465.7 107.4V136.1H455.1V87.2998H464.4L482.7 117.6L500.7 87.2998H510L510.1 136.1H499.6Z" fill="#ffffff"/>
<path d="M521.8 87.2998H533.1V136.1H521.8V87.2998Z" fill="#ffffff"/>
<path d="M589.4 87.2998V136.1H580.1L555.8 106.5V136.1H544.6V87.2998H553.9L578.2 116.9V87.2998H589.4Z" fill="#ffffff"/>
<path d="M601 87.2998H612.299V136.1H601V87.2998Z" fill="#ffffff"/>
<path d="M628.7 135.4C625.1 134.4 622.2 133 620 131.3L623.799 122.8C625.899 124.3 628.399 125.6 631.299 126.5C634.199 127.4 637.1 127.9 639.9 127.9C643.1 127.9 645.5 127.4 647 126.5C648.5 125.5 649.299 124.3 649.299 122.7C649.299 121.5 648.8 120.6 647.9 119.8C647 119 645.8 118.4 644.4 118C643 117.5 641.099 117 638.599 116.5C634.899 115.6 631.8 114.7 629.5 113.8C627.1 112.9 625.1 111.5 623.4 109.5C621.7 107.5 620.9 104.9 620.9 101.7C620.9 98.9 621.7 96.3 623.2 94C624.7 91.7 626.999 89.9 630.099 88.5C633.199 87.2 637 86.5 641.4 86.5C644.5 86.5 647.6 86.9 650.5 87.6C653.5 88.3 656.099 89.4 658.299 90.8L654.799 99.4C650.299 96.8 645.799 95.6 641.299 95.6C638.099 95.6 635.799 96.1 634.299 97.1C632.799 98.1 632 99.5 632 101.1C632 102.7 632.899 104 634.599 104.8C636.299 105.6 638.999 106.4 642.599 107.2C646.299 108.1 649.4 109 651.7 109.9C654.1 110.8 656.099 112.2 657.799 114.1C659.5 116 660.299 118.6 660.299 121.8C660.299 124.6 659.5 127.1 658 129.4C656.4 131.7 654.1 133.5 651 134.9C647.9 136.2 644.099 136.9 639.599 136.9C636.099 137 632.3 136.5 628.7 135.4Z" fill="#ffffff"/>
<path d="M677.8 96.4998H662.2V87.2998H704.7V96.4998H689.1V136.1H677.8V96.4998Z" fill="#ffffff"/>
<path d="M741.9 136.1L732.5 122.5H731.9H722.1V136.1H710.8V87.2998H731.9C736.2 87.2998 740 87.9998 743.2 89.4998C746.4 90.8998 748.8 92.9997 750.6 95.5997C752.3 98.2997 753.2 101.4 753.2 105C753.2 108.6 752.3 111.8 750.6 114.4C748.9 117 746.4 119 743.2 120.4L754.1 136.1H741.9ZM739 98.6997C737.2 97.1997 734.7 96.4998 731.3 96.4998H722.1V113.5H731.3C734.7 113.5 737.3 112.8 739 111.3C740.8 109.8 741.7 107.7 741.7 105C741.7 102.3 740.8 100.2 739 98.6997Z" fill="#ffffff"/>
<path d="M784.8 118.9V136.2H773.5V118.8L754.6 87.4004H766.6L779.6 109.1L792.6 87.4004H803.7L784.8 118.9Z" fill="#ffffff"/>
<path d="M838.2 133.7C834.1 131.5 830.9 128.5 828.6 124.7C826.3 120.9 825.1 116.6 825.1 111.8C825.1 107 826.3 102.7 828.6 98.8997C830.9 95.0997 834.1 92.0997 838.2 89.8997C842.3 87.6997 846.8 86.5996 851.9 86.5996C857 86.5996 861.5 87.6997 865.6 89.8997C869.7 92.0997 872.8 95.0997 875.2 98.8997C877.5 102.7 878.7 107 878.7 111.8C878.7 116.6 877.5 120.9 875.2 124.7C872.9 128.5 869.7 131.5 865.6 133.7C861.6 135.9 857 137 851.9 137C846.8 137 842.2 135.9 838.2 133.7ZM859.7 125.4C862 124.1 863.8 122.2 865.2 119.9C866.5 117.5 867.2 114.8 867.2 111.8C867.2 108.8 866.5 106.1 865.2 103.7C863.9 101.3 862 99.4996 859.7 98.1996C857.4 96.8996 854.8 96.1996 851.9 96.1996C849 96.1996 846.4 96.8996 844.1 98.1996C841.8 99.4996 840 101.4 838.6 103.7C837.2 106 836.6 108.8 836.6 111.8C836.6 114.8 837.3 117.5 838.6 119.9C839.9 122.3 841.7 124.1 844.1 125.4C846.4 126.7 849 127.4 851.9 127.4C854.8 127.4 857.4 126.7 859.7 125.4Z" fill="#ffffff"/>
<path d="M898.4 96.4004V109.3H921V118.4H898.4V136.2H887.1V87.4004H924V96.5004H898.4V96.4004Z" fill="#ffffff"/>
<path d="M455.2 171H477.4C482.7 171 487.4 172 491.5 174C495.6 176 498.7 178.9 501 182.5C503.3 186.2 504.4 190.4 504.4 195.3C504.4 200.2 503.3 204.5 501 208.1C498.7 211.8 495.6 214.6 491.5 216.6C487.4 218.6 482.7 219.6 477.4 219.6H455.2V171ZM476.8 210.6C481.7 210.6 485.6 209.2 488.5 206.5C491.4 203.8 492.9 200.1 492.9 195.4C492.9 190.8 491.4 187.1 488.5 184.3C485.6 181.6 481.7 180.2 476.8 180.2H466.5V210.5H476.8V210.6Z" fill="#ffffff"/>
<path d="M512.8 171H524.1V219.8H512.8V171Z" fill="#ffffff"/>
<path d="M568.7 194.7H579V214.5C576.4 216.5 573.3 218 569.8 219.1C566.3 220.2 562.8 220.7 559.3 220.7C554.2 220.7 549.7 219.6 545.6 217.5C541.5 215.4 538.4 212.3 536.1 208.5C533.8 204.7 532.6 200.3 532.6 195.5C532.6 190.7 533.8 186.3 536.1 182.5C538.4 178.7 541.6 175.7 545.7 173.5C549.8 171.3 554.4 170.3 559.5 170.3C563.8 170.3 567.7 171 571.1 172.5C574.6 173.9 577.5 176 579.9 178.8L572.6 185.5C569.1 181.8 564.9 180 560 180C556.9 180 554.1 180.7 551.7 182C549.3 183.3 547.4 185.1 546.1 187.5C544.8 189.9 544.1 192.6 544.1 195.7C544.1 198.7 544.8 201.4 546.1 203.8C547.4 206.2 549.3 208 551.7 209.3C554.1 210.6 556.8 211.3 559.9 211.3C563.2 211.3 566.1 210.6 568.7 209.2V194.7Z" fill="#ffffff"/>
<path d="M589.4 171H600.7V219.8H589.4V171Z" fill="#ffffff"/>
<path d="M622.4 180.2H606.8V171H649.3V180.2H633.7V219.8H622.4V180.2Z" fill="#ffffff"/>
<path d="M685.099 209.4H662.4L658.099 219.9H646.5L668.299 171.1H679.5L701.299 219.9H689.4L685.099 209.4ZM681.599 200.8L673.9 182.1L666.2 200.8H681.599Z" fill="#ffffff"/>
<path d="M706.4 171H717.7V210.6H742.2V219.8H706.4V171Z" fill="#ffffff"/>
<path d="M778.4 180.2H762.8V171H805.3V180.2H789.7V219.8H778.4V180.2Z" fill="#ffffff"/>
<path d="M849.2 210.8V219.9H811.4V171H848.3V180.1H822.6V190.7H845.3V199.5H822.6V210.8H849.2Z" fill="#ffffff"/>
<path d="M867.9 217.4C863.9 215.2 860.7 212.2 858.4 208.4C856.1 204.6 854.9 200.2 854.9 195.4C854.9 190.6 856.1 186.2 858.4 182.4C860.7 178.6 863.9 175.6 867.9 173.4C871.9 171.2 876.4 170.2 881.5 170.2C885.7 170.2 889.6 170.9 893 172.4C896.4 173.9 899.3 176 901.6 178.8L894.3 185.5C891 181.7 886.9 179.8 882 179.8C879 179.8 876.3 180.5 873.9 181.8C871.5 183.1 869.7 185 868.4 187.3C867.1 189.6 866.4 192.4 866.4 195.4C866.4 198.4 867.1 201.1 868.4 203.5C869.7 205.9 871.6 207.7 873.9 209C876.3 210.3 879 211 882 211C886.9 211 891 209.1 894.3 205.2L901.6 211.9C899.3 214.7 896.4 216.9 893 218.4C889.6 219.9 885.7 220.6 881.5 220.6C876.4 220.7 871.9 219.6 867.9 217.4Z" fill="#ffffff"/>
<path d="M953.9 171V219.8H942.6V199.8H920.4V219.8H909.1V171H920.4V190.2H942.6V171H953.9Z" fill="#ffffff"/>
<path d="M1010.2 171V219.8H1000.9L976.6 190.2V219.8H965.4V171H974.7L999 200.6V171H1010.2Z" fill="#ffffff"/>
<path d="M1031.8 217.4C1027.7 215.2 1024.5 212.2 1022.2 208.4C1019.9 204.6 1018.7 200.3 1018.7 195.5C1018.7 190.7 1019.9 186.4 1022.2 182.6C1024.5 178.8 1027.7 175.8 1031.8 173.6C1035.9 171.4 1040.4 170.3 1045.5 170.3C1050.6 170.3 1055.1 171.4 1059.2 173.6C1063.2 175.8 1066.4 178.8 1068.8 182.6C1071.1 186.4 1072.3 190.7 1072.3 195.5C1072.3 200.3 1071.1 204.6 1068.8 208.4C1066.5 212.2 1063.3 215.2 1059.2 217.4C1055.1 219.6 1050.6 220.7 1045.5 220.7C1040.4 220.7 1035.8 219.6 1031.8 217.4ZM1053.3 209.1C1055.6 207.8 1057.4 205.9 1058.8 203.6C1060.1 201.2 1060.8 198.5 1060.8 195.5C1060.8 192.5 1060.1 189.8 1058.8 187.4C1057.5 185 1055.6 183.2 1053.3 181.9C1051 180.6 1048.4 179.9 1045.5 179.9C1042.6 179.9 1040 180.6 1037.7 181.9C1035.4 183.2 1033.6 185.1 1032.2 187.4C1030.8 189.7 1030.2 192.5 1030.2 195.5C1030.2 198.5 1030.9 201.2 1032.2 203.6C1033.5 206 1035.3 207.8 1037.7 209.1C1040 210.4 1042.6 211.1 1045.5 211.1C1048.4 211.1 1051 210.4 1053.3 209.1Z" fill="#ffffff"/>
<path d="M1080.7 171H1092V210.6H1116.5V219.8H1080.7V171Z" fill="#ffffff"/>
<path d="M1131.9 217.4C1127.8 215.2 1124.6 212.2 1122.3 208.4C1120 204.6 1118.8 200.3 1118.8 195.5C1118.8 190.7 1120 186.4 1122.3 182.6C1124.6 178.8 1127.8 175.8 1131.9 173.6C1136 171.4 1140.5 170.3 1145.6 170.3C1150.7 170.3 1155.2 171.4 1159.3 173.6C1163.3 175.8 1166.5 178.8 1168.9 182.6C1171.2 186.4 1172.4 190.7 1172.4 195.5C1172.4 200.3 1171.2 204.6 1168.9 208.4C1166.6 212.2 1163.4 215.2 1159.3 217.4C1155.2 219.6 1150.7 220.7 1145.6 220.7C1140.5 220.7 1136 219.6 1131.9 217.4ZM1153.4 209.1C1155.7 207.8 1157.5 205.9 1158.9 203.6C1160.2 201.2 1160.9 198.5 1160.9 195.5C1160.9 192.5 1160.2 189.8 1158.9 187.4C1157.6 185 1155.7 183.2 1153.4 181.9C1151.1 180.6 1148.5 179.9 1145.6 179.9C1142.7 179.9 1140.1 180.6 1137.8 181.9C1135.5 183.2 1133.7 185.1 1132.3 187.4C1130.9 189.7 1130.3 192.5 1130.3 195.5C1130.3 198.5 1131 201.2 1132.3 203.6C1133.6 206 1135.4 207.8 1137.8 209.1C1140.1 210.4 1142.7 211.1 1145.6 211.1C1148.5 211.1 1151.1 210.4 1153.4 209.1Z" fill="#ffffff"/>
<path d="M1213.8 194.7H1224.1V214.5C1221.4 216.5 1218.4 218 1214.9 219.1C1211.4 220.2 1207.9 220.7 1204.4 220.7C1199.3 220.7 1194.8 219.6 1190.7 217.5C1186.6 215.4 1183.5 212.3 1181.2 208.5C1178.9 204.7 1177.7 200.3 1177.7 195.5C1177.7 190.7 1178.9 186.3 1181.2 182.5C1183.5 178.7 1186.7 175.7 1190.8 173.5C1194.9 171.3 1199.5 170.3 1204.6 170.3C1208.9 170.3 1212.8 171 1216.2 172.5C1219.7 173.9 1222.6 176 1225 178.8L1217.7 185.5C1214.2 181.8 1210 180 1205.1 180C1202 180 1199.2 180.7 1196.8 182C1194.4 183.3 1192.5 185.1 1191.2 187.5C1189.9 189.9 1189.2 192.6 1189.2 195.7C1189.2 198.7 1189.9 201.4 1191.2 203.8C1192.5 206.2 1194.4 208 1196.8 209.3C1199.2 210.6 1201.9 211.3 1205 211.3C1208.3 211.3 1211.2 210.6 1213.8 209.2V194.7Z" fill="#ffffff"/>
<path d="M1234.6 171H1245.9V219.8H1234.6V171Z" fill="#ffffff"/>
<path d="M1295.3 210.8V219.9H1257.5V171H1294.4V180.1H1268.7V190.7H1291.4V199.5H1268.7V210.8H1295.3Z" fill="#ffffff"/>
<path d="M1309.1 219.1C1305.5 218.1 1302.6 216.7 1300.4 215L1304.2 206.5C1306.3 208 1308.8 209.3 1311.7 210.2C1314.6 211.1 1317.5 211.6 1320.3 211.6C1323.5 211.6 1325.9 211.1 1327.4 210.2C1328.9 209.2 1329.7 208 1329.7 206.4C1329.7 205.2 1329.2 204.3 1328.3 203.5C1327.4 202.7 1326.2 202.1 1324.8 201.7C1323.4 201.2 1321.5 200.7 1319 200.2C1315.3 199.3 1312.2 198.4 1309.9 197.5C1307.5 196.6 1305.5 195.2 1303.8 193.2C1302.1 191.2 1301.3 188.6 1301.3 185.4C1301.3 182.6 1302.1 180 1303.6 177.7C1305.1 175.4 1307.4 173.6 1310.5 172.2C1313.6 170.9 1317.4 170.2 1321.8 170.2C1324.9 170.2 1328 170.6 1330.9 171.3C1333.9 172 1336.5 173.1 1338.7 174.5L1335.2 183.1C1330.7 180.5 1326.2 179.3 1321.7 179.3C1318.5 179.3 1316.2 179.8 1314.7 180.8C1313.2 181.8 1312.4 183.2 1312.4 184.8C1312.4 186.4 1313.3 187.7 1315 188.5C1316.7 189.3 1319.4 190.1 1323 190.9C1326.7 191.8 1329.8 192.7 1332.1 193.5C1334.5 194.4 1336.5 195.8 1338.2 197.7C1339.9 199.6 1340.7 202.2 1340.7 205.4C1340.7 208.2 1339.9 210.7 1338.4 213C1336.8 215.3 1334.5 217.1 1331.4 218.5C1328.3 219.8 1324.5 220.5 1320 220.5C1316.4 220.7 1312.7 220.1 1309.1 219.1Z" fill="#ffffff"/>
<path d="M1378.4 217.4C1374.3 215.2 1371.1 212.2 1368.8 208.4C1366.5 204.6 1365.3 200.3 1365.3 195.5C1365.3 190.7 1366.5 186.4 1368.8 182.6C1371.1 178.8 1374.3 175.8 1378.4 173.6C1382.5 171.4 1387 170.3 1392.1 170.3C1397.2 170.3 1401.7 171.4 1405.8 173.6C1409.8 175.8 1413 178.8 1415.4 182.6C1417.7 186.4 1418.9 190.7 1418.9 195.5C1418.9 200.3 1417.7 204.6 1415.4 208.4C1413.1 212.2 1409.9 215.2 1405.8 217.4C1401.7 219.6 1397.2 220.7 1392.1 220.7C1387 220.7 1382.5 219.6 1378.4 217.4ZM1399.9 209.1C1402.2 207.8 1404 205.9 1405.4 203.6C1406.7 201.2 1407.4 198.5 1407.4 195.5C1407.4 192.5 1406.7 189.8 1405.4 187.4C1404.1 185 1402.2 183.2 1399.9 181.9C1397.6 180.6 1395 179.9 1392.1 179.9C1389.2 179.9 1386.6 180.6 1384.3 181.9C1382 183.2 1380.2 185.1 1378.8 187.4C1377.4 189.7 1376.8 192.5 1376.8 195.5C1376.8 198.5 1377.5 201.2 1378.8 203.6C1380.1 206 1381.9 207.8 1384.3 209.1C1386.6 210.4 1389.2 211.1 1392.1 211.1C1395 211.1 1397.6 210.4 1399.9 209.1Z" fill="#ffffff"/>
<path d="M1438.7 180.1V193H1461.3V202.1H1438.7V219.9H1427.4V171H1464.3V180.1H1438.7Z" fill="#ffffff"/>
<path d="M465.3 263.9H449.7V254.7H492.2V263.9H476.6V303.5H465.3V263.9Z" fill="#ffffff"/>
<path d="M543.1 254.7V303.5H531.8V283.5H509.6V303.5H498.3V254.7H509.6V273.9H531.8V254.7H543.1Z" fill="#ffffff"/>
<path d="M592.4 294.5V303.6H554.6V254.8H591.5V263.9H565.8V274.5H588.5V283.3H565.8V294.6H592.4V294.5Z" fill="#ffffff"/>
<path d="M652.3 303.5L642.9 289.9H642.3H632.5V303.5H621.2V254.7H642.3C646.6 254.7 650.4 255.4 653.6 256.9C656.8 258.3 659.2 260.4 661 263C662.7 265.7 663.6 268.8 663.6 272.4C663.6 276 662.7 279.2 661 281.8C659.3 284.4 656.8 286.4 653.6 287.8L664.5 303.5H652.3ZM649.4 266.1C647.6 264.6 645.1 263.9 641.7 263.9H632.5V280.9H641.7C645.1 280.9 647.7 280.2 649.4 278.7C651.2 277.2 652.1 275.1 652.1 272.4C652.1 269.7 651.2 267.6 649.4 266.1Z" fill="#ffffff"/>
<path d="M710.2 294.5V303.6H672.4V254.8H709.3V263.9H683.6V274.5H706.3V283.3H683.6V294.6H710.2V294.5Z" fill="#ffffff"/>
<path d="M751.6 256.9C754.8 258.3 757.2 260.4 759 263C760.8 265.6 761.6 268.8 761.6 272.4C761.6 276 760.7 279.1 759 281.8C757.3 284.5 754.8 286.5 751.6 287.9C748.4 289.3 744.7 290 740.3 290H730.5V303.5H719.2V254.7H740.3C744.7 254.7 748.4 255.4 751.6 256.9ZM747.5 278.7C749.3 277.2 750.1 275.2 750.1 272.5C750.1 269.8 749.2 267.7 747.5 266.2C745.7 264.7 743.2 264 739.8 264H730.6V280.9H739.8C743.1 280.9 745.7 280.1 747.5 278.7Z" fill="#ffffff"/>
<path d="M774.799 298.6C770.899 294.7 769 289.2 769 282.1V254.8H780.299V281.7C780.299 290.4 783.9 294.8 791.2 294.8C794.7 294.8 797.399 293.7 799.299 291.6C801.2 289.5 802.099 286.2 802.099 281.7V254.8H813.3V282.1C813.3 289.3 811.4 294.8 807.5 298.6C803.6 302.5 798.2 304.4 791.2 304.4C784.2 304.4 778.699 302.4 774.799 298.6Z" fill="#ffffff"/>
<path d="M866.7 282.6C868.3 284.7 869.1 287.2 869.1 290.2C869.1 294.5 867.4 297.8 864.1 300.1C860.8 302.4 855.9 303.6 849.6 303.6H824.4V254.8H848.3C854.3 254.8 858.8 255.9 862 258.2C865.2 260.5 866.8 263.6 866.8 267.5C866.8 269.9 866.2 272 865.1 273.8C864 275.7 862.4 277.1 860.3 278.2C863 279 865.1 280.5 866.7 282.6ZM835.6 263.2V274.7H846.8C849.6 274.7 851.7 274.2 853.1 273.2C854.5 272.2 855.3 270.8 855.3 268.9C855.3 267 854.6 265.6 853.1 264.6C851.7 263.6 849.5 263.2 846.8 263.2H835.6ZM855.5 293.5C857 292.5 857.8 291 857.8 289C857.8 285 854.8 282.9 848.8 282.9H835.6V295H848.8C851.7 295 854 294.5 855.5 293.5Z" fill="#ffffff"/>
<path d="M877.7 254.7H889V294.3H913.5V303.5H877.7V254.7Z" fill="#ffffff"/>
<path d="M919.8 254.7H931.1V303.5H919.8V254.7Z" fill="#ffffff"/>
<path d="M952.5 301.1C948.5 298.9 945.3 295.9 943 292.1C940.7 288.3 939.5 283.9 939.5 279.1C939.5 274.3 940.7 269.9 943 266.1C945.3 262.3 948.5 259.3 952.5 257.1C956.5 254.9 960.999 253.9 966.099 253.9C970.299 253.9 974.199 254.6 977.599 256.1C980.999 257.6 983.899 259.7 986.199 262.5L978.9 269.2C975.6 265.4 971.499 263.5 966.599 263.5C963.599 263.5 960.9 264.2 958.5 265.5C956.1 266.8 954.3 268.7 953 271C951.7 273.3 951 276.1 951 279.1C951 282.1 951.7 284.8 953 287.2C954.3 289.6 956.2 291.4 958.5 292.7C960.9 294 963.599 294.7 966.599 294.7C971.499 294.7 975.6 292.8 978.9 288.9L986.199 295.6C983.899 298.4 980.999 300.6 977.599 302.1C974.199 303.6 970.299 304.3 966.099 304.3C961.099 304.4 956.6 303.3 952.5 301.1Z" fill="#ffffff"/>
<path d="M1023.5 301.1C1019.4 298.9 1016.2 295.9 1013.9 292.1C1011.6 288.3 1010.4 284 1010.4 279.2C1010.4 274.4 1011.6 270.1 1013.9 266.3C1016.2 262.5 1019.4 259.5 1023.5 257.3C1027.6 255.1 1032.1 254 1037.2 254C1042.3 254 1046.8 255.1 1050.9 257.3C1054.9 259.5 1058.1 262.5 1060.5 266.3C1062.8 270.1 1064 274.4 1064 279.2C1064 284 1062.8 288.3 1060.5 292.1C1058.2 295.9 1055 298.9 1050.9 301.1C1046.8 303.3 1042.3 304.4 1037.2 304.4C1032.1 304.4 1027.5 303.3 1023.5 301.1ZM1045 292.7C1047.3 291.4 1049.1 289.5 1050.5 287.2C1051.9 284.9 1052.5 282.1 1052.5 279.1C1052.5 276.1 1051.8 273.4 1050.5 271C1049.2 268.6 1047.3 266.8 1045 265.5C1042.7 264.2 1040.1 263.5 1037.2 263.5C1034.3 263.5 1031.7 264.2 1029.4 265.5C1027.1 266.8 1025.3 268.7 1023.9 271C1022.5 273.3 1021.9 276.1 1021.9 279.1C1021.9 282.1 1022.6 284.8 1023.9 287.2C1025.2 289.6 1027 291.4 1029.4 292.7C1031.7 294 1034.3 294.7 1037.2 294.7C1040.1 294.7 1042.7 294.1 1045 292.7Z" fill="#ffffff"/>
<path d="M1083.7 263.8V276.7H1106.3V285.8H1083.7V303.6H1072.4V254.8H1109.3V263.9H1083.7V263.8Z" fill="#ffffff"/>
<path d="M1142.1 298.6C1138.2 294.7 1136.3 289.2 1136.3 282.1V254.8H1147.6V281.7C1147.6 290.4 1151.2 294.8 1158.5 294.8C1162 294.8 1164.7 293.7 1166.6 291.6C1168.5 289.5 1169.4 286.2 1169.4 281.7V254.8H1180.6V282.1C1180.6 289.3 1178.7 294.8 1174.8 298.6C1170.9 302.5 1165.5 304.4 1158.5 304.4C1151.5 304.4 1146 302.4 1142.1 298.6Z" fill="#ffffff"/>
<path d="M1231.2 294.3V303.5H1188.5V296.2L1215.3 263.9H1189.1V254.7H1230.2V262L1203.5 294.3H1231.2Z" fill="#ffffff"/>
<path d="M1280.8 282.6C1282.4 284.7 1283.2 287.2 1283.2 290.2C1283.2 294.5 1281.5 297.8 1278.2 300.1C1274.9 302.4 1270 303.6 1263.7 303.6H1238.5V254.8H1262.4C1268.4 254.8 1272.9 255.9 1276.1 258.2C1279.3 260.5 1280.9 263.6 1280.9 267.5C1280.9 269.9 1280.3 272 1279.2 273.8C1278.1 275.7 1276.5 277.1 1274.4 278.2C1277.1 279 1279.3 280.5 1280.8 282.6ZM1249.7 263.2V274.7H1260.9C1263.7 274.7 1265.8 274.2 1267.2 273.2C1268.6 272.2 1269.4 270.8 1269.4 268.9C1269.4 267 1268.7 265.6 1267.2 264.6C1265.8 263.6 1263.6 263.2 1260.9 263.2H1249.7ZM1269.6 293.5C1271.1 292.5 1271.9 291 1271.9 289C1271.9 285 1268.9 282.9 1262.9 282.9H1249.7V295H1262.9C1265.8 295 1268.1 294.5 1269.6 293.5Z" fill="#ffffff"/>
<path d="M1329.6 294.5V303.6H1291.8V254.8H1328.7V263.9H1303V274.5H1325.7V283.3H1303V294.6H1329.6V294.5Z" fill="#ffffff"/>
<path d="M1356.4 284.3L1349.8 291.1V303.4H1338.6V254.6H1349.8V277.4L1371.4 254.6H1384L1363.8 276.4L1385.2 303.5H1372L1356.4 284.3Z" fill="#ffffff"/>
<path d="M1390.2 254.7H1401.5V303.5H1390.2V254.7Z" fill="#ffffff"/>
<path d="M1417.9 302.8C1414.3 301.8 1411.4 300.4 1409.2 298.7L1413 290.2C1415.1 291.7 1417.6 293 1420.5 293.9C1423.4 294.8 1426.3 295.3 1429.1 295.3C1432.3 295.3 1434.7 294.8 1436.2 293.9C1437.7 292.9 1438.5 291.7 1438.5 290.1C1438.5 288.9 1438 288 1437.1 287.2C1436.2 286.4 1435 285.8 1433.6 285.4C1432.2 284.9 1430.3 284.4 1427.8 283.9C1424.1 283 1421 282.1 1418.7 281.2C1416.3 280.3 1414.3 278.9 1412.6 276.9C1410.9 274.9 1410.1 272.3 1410.1 269.1C1410.1 266.3 1410.9 263.7 1412.4 261.4C1413.9 259.1 1416.2 257.3 1419.3 255.9C1422.4 254.6 1426.2 253.9 1430.6 253.9C1433.7 253.9 1436.8 254.3 1439.7 255C1442.7 255.7 1445.3 256.8 1447.5 258.2L1444 266.8C1439.5 264.2 1435 263 1430.5 263C1427.3 263 1425 263.5 1423.5 264.5C1422 265.5 1421.2 266.9 1421.2 268.5C1421.2 270.2 1422.1 271.4 1423.8 272.2C1425.5 273 1428.2 273.8 1431.8 274.6C1435.5 275.5 1438.6 276.4 1440.9 277.3C1443.3 278.2 1445.3 279.6 1447 281.5C1448.7 283.4 1449.5 286 1449.5 289.2C1449.5 292 1448.7 294.5 1447.2 296.8C1445.6 299.1 1443.3 300.9 1440.2 302.3C1437.1 303.6 1433.3 304.3 1428.8 304.3C1425.2 304.4 1421.5 303.8 1417.9 302.8Z" fill="#ffffff"/>
<path d="M1467 263.9H1451.4V254.7H1493.9V263.9H1478.3V303.5H1467V263.9Z" fill="#ffffff"/>
<path d="M1529.7 293.1H1507L1502.7 303.6H1491.1L1512.9 254.8H1524.1L1545.9 303.6H1534L1529.7 293.1ZM1526.1 284.5L1518.4 265.8L1510.7 284.5H1526.1Z" fill="#ffffff"/>
<path d="M1595.7 254.7V303.5H1586.4L1562.1 273.9V303.5H1550.9V254.7H1560.2L1584.5 284.3V254.7H1595.7Z" fill="#ffffff"/>
</svg>
